<svg xmlns="http://www.w3.org/2000/svg" viewBox="0 0 1200 820" role="img" aria-label="Soft bridal spray tan glow editorial with Sorbet Skin product">
    <defs>
      <linearGradient id="bridal-bg" x1="0" y1="0" x2="1" y2="1"><stop offset="0" stop-color="#FFFFFA"/><stop offset="0.55" stop-color="#FFF3DD"/><stop offset="1" stop-color="#F6CBB8"/></linearGradient>
      <radialGradient id="skin-glow" cx="50%" cy="34%" r="80%"><stop offset="0" stop-color="#F6CBB8"/><stop offset="0.55" stop-color="#D99A72"/><stop offset="1" stop-color="#A96A43"/></radialGradient>
      <linearGradient id="dress" x1="0" y1="0" x2="1" y2="1"><stop offset="0" stop-color="#ffffff"/><stop offset="1" stop-color="#FFF3DD"/></linearGradient>
      <filter id="bridal-shadow" x="-20%" y="-20%" width="140%" height="140%"><feDropShadow dx="0" dy="24" stdDeviation="24" flood-color="#6B412A" flood-opacity="0.16"/></filter>
    </defs>
    <rect width="1200" height="820" fill="url(#bridal-bg)"/>
    <circle cx="978" cy="142" r="194" fill="#FF8FBC" opacity="0.16"/>
    <circle cx="175" cy="720" r="184" fill="#BEE5C5" opacity="0.22"/>
    <path d="M140 802c108-200 218-314 358-342 192-39 357 33 505-162 40 178-24 347-179 419-166 76-377 57-684 85Z" fill="url(#skin-glow)" opacity="0.98"/>
    <path d="M326 805c101-148 237-202 426-164 144 29 246-1 329-90-17 126-89 211-220 256Z" fill="url(#dress)" opacity="0.82"/>
    <path d="M507 471c98 81 218 93 363 37" fill="none" stroke="#FFFFFA" stroke-width="10" stroke-linecap="round" opacity="0.38"/>
    <g transform="translate(695 210) rotate(12) scale(0.34)" filter="url(#bridal-shadow)">
    <defs>
    <linearGradient id="bridal-product-body" x1="0" y1="0" x2="1" y2="1">
      <stop offset="0" stop-color="#FFFFFA"/>
      <stop offset="0.36" stop-color="#FFF3DD"/>
      <stop offset="1" stop-color="#E8C891"/>
    </linearGradient>
    <linearGradient id="bridal-product-cap" x1="0" y1="0" x2="1" y2="1">
      <stop offset="0" stop-color="#ffffff" stop-opacity="0.92"/>
      <stop offset="0.52" stop-color="#FFF9EE"/>
      <stop offset="1" stop-color="#FFF3DD" stop-opacity="0.78"/>
    </linearGradient>
    <linearGradient id="bridal-product-label" x1="0" y1="0" x2="1" y2="1">
      <stop offset="0" stop-color="#FFFFFA" stop-opacity="0.9"/>
      <stop offset="1" stop-color="#FFF3DD" stop-opacity="0.72"/>
    </linearGradient>
    <radialGradient id="bridal-product-glow" cx="50%" cy="30%" r="70%">
      <stop offset="0" stop-color="#ffffff" stop-opacity="0.7"/>
      <stop offset="1" stop-color="#ffffff" stop-opacity="0"/>
    </radialGradient>
    <filter id="bridal-product-shadow" x="-40%" y="-40%" width="180%" height="190%">
      <feDropShadow dx="0" dy="36" stdDeviation="26" flood-color="#6B412A" flood-opacity="0.22"/>
    </filter>
  </defs>
    <ellipse cx="512" cy="1190" rx="245" ry="58" fill="#6B412A" opacity="0.17"/>
    <g filter="url(#bridal-product-shadow)">
      <g>
    <clipPath id="bridal-product-cap-clip"><path d="M344 442V278.2C344 210.16 411.2 190 512 190s168 20.16 168 88.19999999999999V442Z"/></clipPath>
    <path d="M344 442V278.2C344 210.16 411.2 190 512 190s168 20.16 168 88.19999999999999V442Z" fill="url(#bridal-product-cap)" stroke="#fff" stroke-width="6"/>
    <g clip-path="url(#bridal-product-cap-clip)"><rect x="380.96" y="207.64" width="31.42" height="196.56" rx="14.84" fill="#fff" opacity="0.34"/><rect x="428.09" y="207.64" width="31.42" height="196.56" rx="14.84" fill="#fff" opacity="0.2"/><rect x="475.21" y="207.64" width="31.42" height="196.56" rx="14.84" fill="#fff" opacity="0.34"/><rect x="522.34" y="207.64" width="31.42" height="196.56" rx="14.84" fill="#fff" opacity="0.2"/><rect x="569.47" y="207.64" width="31.42" height="196.56" rx="14.84" fill="#fff" opacity="0.34"/><rect x="616.60" y="207.64" width="31.42" height="196.56" rx="14.84" fill="#fff" opacity="0.2"/></g>
    <rect x="336" y="391.6" width="352" height="45.36" rx="20.16" fill="#FFF9EE" stroke="#fff" stroke-width="5" opacity="0.96"/>
  </g>
      <rect x="320" y="398" width="384" height="760" rx="116" fill="url(#bridal-product-body)" stroke="#fff" stroke-width="7"/>
      <rect x="354.56" y="422" width="61.44" height="592.8000000000001" rx="36" fill="#fff" opacity="0.2"/>
      <rect x="619.52" y="430" width="30.72" height="516.8000000000001" rx="22" fill="#302621" opacity="0.08"/>
      <ellipse cx="512" cy="468" rx="138.24" ry="83.6" fill="url(#bridal-product-glow)" opacity="0.85"/>
      <rect x="369" y="610" width="286" height="336" rx="104" fill="url(#bridal-product-label)" stroke="#fff" stroke-width="5" opacity="0.96"/>
      <text x="512" y="666" text-anchor="middle" font-family="Inter, Arial, sans-serif" font-size="24" font-weight="900" letter-spacing="4" fill="#6B412A" opacity="0.86">SORBET SKIN</text>
      <text x="512" y="726" text-anchor="middle" font-family="Georgia, serif" font-size="48" font-weight="700" fill="#6B412A">Vanilla</text><text x="512" y="778" text-anchor="middle" font-family="Georgia, serif" font-size="48" font-weight="700" fill="#6B412A">Veil</text>
      <text x="512" y="834" text-anchor="middle" font-family="Inter, Arial, sans-serif" font-size="22" font-weight="800" fill="#6B412A" opacity="0.78">Gradual Glow Body Whip</text>
      <text x="512" y="872" text-anchor="middle" font-family="Inter, Arial, sans-serif" font-size="20" font-weight="800" fill="#6B412A" opacity="0.62">Vanilla Cream</text>
      <g transform="translate(478 874) scale(0.62)" fill="#E7A84E" opacity="0.85">
    <path d="M35 5c-13 7-20 18-18 30 2 10 13 14 25 18 11 3 18 7 18 15 0 8-7 15-22 20 24-2 39-13 39-29 0-13-11-20-28-25-12-3-18-7-17-14 1-6 7-11 16-15-4-1-8-1-13 0z"/>
    <path d="M27 52c-12 4-20 12-20 23 0 13 12 23 34 25-11-5-17-11-17-18 0-9 9-15 24-20-7-5-14-8-21-10z" opacity="0.6"/>
  </g>
    </g>
  </g>
    <g transform="translate(838 470) rotate(-8) scale(0.28)" filter="url(#bridal-shadow)">
    <defs>
    <linearGradient id="bridal-peach-body" x1="0" y1="0" x2="1" y2="1">
      <stop offset="0" stop-color="#FFD8C6"/>
      <stop offset="0.36" stop-color="#FFB38A"/>
      <stop offset="1" stop-color="#E77D55"/>
    </linearGradient>
    <linearGradient id="bridal-peach-cap" x1="0" y1="0" x2="1" y2="1">
      <stop offset="0" stop-color="#ffffff" stop-opacity="0.92"/>
      <stop offset="0.52" stop-color="#FFE4D5"/>
      <stop offset="1" stop-color="#FFB38A" stop-opacity="0.78"/>
    </linearGradient>
    <linearGradient id="bridal-peach-label" x1="0" y1="0" x2="1" y2="1">
      <stop offset="0" stop-color="#FFFFFA" stop-opacity="0.9"/>
      <stop offset="1" stop-color="#FFF3DD" stop-opacity="0.72"/>
    </linearGradient>
    <radialGradient id="bridal-peach-glow" cx="50%" cy="30%" r="70%">
      <stop offset="0" stop-color="#ffffff" stop-opacity="0.7"/>
      <stop offset="1" stop-color="#ffffff" stop-opacity="0"/>
    </radialGradient>
    <filter id="bridal-peach-shadow" x="-40%" y="-40%" width="180%" height="190%">
      <feDropShadow dx="0" dy="36" stdDeviation="26" flood-color="#6B412A" flood-opacity="0.22"/>
    </filter>
  </defs>
    <ellipse cx="512" cy="1190" rx="245" ry="58" fill="#6B412A" opacity="0.17"/>
    <g filter="url(#bridal-peach-shadow)">
      <g>
    <clipPath id="bridal-peach-cap-clip"><path d="M344 442V278.2C344 210.16 411.2 190 512 190s168 20.16 168 88.19999999999999V442Z"/></clipPath>
    <path d="M344 442V278.2C344 210.16 411.2 190 512 190s168 20.16 168 88.19999999999999V442Z" fill="url(#bridal-peach-cap)" stroke="#fff" stroke-width="6"/>
    <g clip-path="url(#bridal-peach-cap-clip)"><rect x="380.96" y="207.64" width="31.42" height="196.56" rx="14.84" fill="#fff" opacity="0.34"/><rect x="428.09" y="207.64" width="31.42" height="196.56" rx="14.84" fill="#fff" opacity="0.2"/><rect x="475.21" y="207.64" width="31.42" height="196.56" rx="14.84" fill="#fff" opacity="0.34"/><rect x="522.34" y="207.64" width="31.42" height="196.56" rx="14.84" fill="#fff" opacity="0.2"/><rect x="569.47" y="207.64" width="31.42" height="196.56" rx="14.84" fill="#fff" opacity="0.34"/><rect x="616.60" y="207.64" width="31.42" height="196.56" rx="14.84" fill="#fff" opacity="0.2"/></g>
    <rect x="336" y="391.6" width="352" height="45.36" rx="20.16" fill="#FFE4D5" stroke="#fff" stroke-width="5" opacity="0.96"/>
  </g>
      <rect x="320" y="398" width="384" height="760" rx="116" fill="url(#bridal-peach-body)" stroke="#fff" stroke-width="7"/>
      <rect x="354.56" y="422" width="61.44" height="592.8000000000001" rx="36" fill="#fff" opacity="0.2"/>
      <rect x="619.52" y="430" width="30.72" height="516.8000000000001" rx="22" fill="#302621" opacity="0.08"/>
      <ellipse cx="512" cy="468" rx="138.24" ry="83.6" fill="url(#bridal-peach-glow)" opacity="0.85"/>
      <rect x="369" y="610" width="286" height="336" rx="104" fill="url(#bridal-peach-label)" stroke="#fff" stroke-width="5" opacity="0.96"/>
      <text x="512" y="666" text-anchor="middle" font-family="Inter, Arial, sans-serif" font-size="24" font-weight="900" letter-spacing="4" fill="#6B412A" opacity="0.86">SORBET SKIN</text>
      <text x="512" y="726" text-anchor="middle" font-family="Georgia, serif" font-size="48" font-weight="700" fill="#6B412A">Peach</text><text x="512" y="778" text-anchor="middle" font-family="Georgia, serif" font-size="48" font-weight="700" fill="#6B412A">Glaze</text>
      <text x="512" y="834" text-anchor="middle" font-family="Inter, Arial, sans-serif" font-size="22" font-weight="800" fill="#6B412A" opacity="0.78">Whipped Self Tan Mousse</text>
      <text x="512" y="872" text-anchor="middle" font-family="Inter, Arial, sans-serif" font-size="20" font-weight="800" fill="#6B412A" opacity="0.62">Peach Sorbet</text>
      <g transform="translate(478 874) scale(0.62)" fill="#FF8FBC" opacity="0.85">
    <path d="M35 5c-13 7-20 18-18 30 2 10 13 14 25 18 11 3 18 7 18 15 0 8-7 15-22 20 24-2 39-13 39-29 0-13-11-20-28-25-12-3-18-7-17-14 1-6 7-11 16-15-4-1-8-1-13 0z"/>
    <path d="M27 52c-12 4-20 12-20 23 0 13 12 23 34 25-11-5-17-11-17-18 0-9 9-15 24-20-7-5-14-8-21-10z" opacity="0.6"/>
  </g>
    </g>
  </g>
    <path d="M126 211c44-35 95-38 153-13" stroke="#fff" stroke-width="22" stroke-linecap="round" opacity="0.52"/>
    <path d="M104 254c64-27 119-24 166 9" stroke="#FFB38A" stroke-width="14" stroke-linecap="round" opacity="0.34"/>
    <text x="92" y="112" font-family="Inter, Arial, sans-serif" font-size="22" font-weight="900" letter-spacing="5" fill="#C9894B">SORBET SKIN</text>
    <text x="92" y="164" font-family="Georgia, serif" font-size="56" font-weight="700" fill="#6B412A">Bridal glow,</text>
    <text x="92" y="224" font-family="Georgia, serif" font-size="56" font-weight="700" fill="#6B412A">soft as sorbet.</text>
  </svg>