<svg xmlns="http://www.w3.org/2000/svg" viewBox="0 0 1536 1024" role="img" aria-label="Sorbet Skin original ribbed-cap self-tan product range">
    <defs>
      <linearGradient id="hero-bg" x1="0" y1="0" x2="1" y2="1"><stop offset="0" stop-color="#FFFFFA"/><stop offset="0.48" stop-color="#FFF3DD"/><stop offset="1" stop-color="#FFD8C6"/></linearGradient>
      <radialGradient id="hero-warm" cx="50%" cy="40%" r="72%"><stop offset="0" stop-color="#FFB38A" stop-opacity="0.52"/><stop offset="1" stop-color="#FFB38A" stop-opacity="0"/></radialGradient>
      <filter id="soft-shadow" x="-20%" y="-20%" width="140%" height="150%"><feDropShadow dx="0" dy="22" stdDeviation="22" flood-color="#6B412A" flood-opacity="0.16"/></filter>
    </defs>
    <rect width="1536" height="1024" fill="url(#hero-bg)"/>
    <rect width="1536" height="1024" fill="url(#hero-warm)" opacity="0.78"/>
    <circle cx="134" cy="752" r="116" fill="#FFB38A" opacity="0.36"/>
    <circle cx="1378" cy="262" r="172" fill="#BEE5C5" opacity="0.32"/>
    <circle cx="1214" cy="760" r="124" fill="#B8A7FF" opacity="0.18"/>
    <path d="M0 790c226-42 418-50 576-25 190 31 347 21 548-41 149-46 287-53 412-20v320H0Z" fill="#FFFFFA" opacity="0.62"/>
    <path d="M0 812c254-48 470-56 648-20 171 35 346 26 526-30 145-45 265-52 362-25v287H0Z" fill="#FFF9EE" opacity="0.85"/>
    <g transform="translate(166 755) scale(0.9)" opacity="0.92">
    <ellipse cx="0" cy="120" rx="126" ry="44" fill="#6B412A" opacity="0.09"/>
    <path d="M-106 116c8-67 48-105 99-120 55-16 111 0 139 43 20 30 22 67 5 97Z" fill="#FFB38A"/>
    <path d="M-75 79c40-20 82-28 122-10 35 16 57 41 72 61" fill="none" stroke="#fff" stroke-width="16" stroke-linecap="round" opacity="0.45"/>
    <circle cx="-38" cy="32" r="11" fill="#C9894B" opacity="0.45"/>
    <circle cx="30" cy="15" r="8" fill="#C9894B" opacity="0.35"/>
  </g>
    <g transform="translate(1362 790) scale(0.9)" opacity="0.92">
    <ellipse cx="0" cy="120" rx="126" ry="44" fill="#6B412A" opacity="0.09"/>
    <path d="M-106 116c8-67 48-105 99-120 55-16 111 0 139 43 20 30 22 67 5 97Z" fill="#FFFFFA"/>
    <path d="M-75 79c40-20 82-28 122-10 35 16 57 41 72 61" fill="none" stroke="#fff" stroke-width="16" stroke-linecap="round" opacity="0.45"/>
    <circle cx="-38" cy="32" r="11" fill="#C9894B" opacity="0.45"/>
    <circle cx="30" cy="15" r="8" fill="#C9894B" opacity="0.35"/>
  </g>
    <g transform="translate(1154 202) scale(0.72)" opacity="0.92">
    <ellipse cx="0" cy="120" rx="126" ry="44" fill="#6B412A" opacity="0.09"/>
    <path d="M-106 116c8-67 48-105 99-120 55-16 111 0 139 43 20 30 22 67 5 97Z" fill="#FFF9EE"/>
    <path d="M-75 79c40-20 82-28 122-10 35 16 57 41 72 61" fill="none" stroke="#fff" stroke-width="16" stroke-linecap="round" opacity="0.45"/>
    <circle cx="-38" cy="32" r="11" fill="#C9894B" opacity="0.45"/>
    <circle cx="30" cy="15" r="8" fill="#C9894B" opacity="0.35"/>
  </g>
    <g filter="url(#soft-shadow)">
      <g transform="translate(20 40) scale(0.62)">
    <defs>
    <linearGradient id="hero-peach-body" x1="0" y1="0" x2="1" y2="1">
      <stop offset="0" stop-color="#FFD8C6"/>
      <stop offset="0.36" stop-color="#FFB38A"/>
      <stop offset="1" stop-color="#E77D55"/>
    </linearGradient>
    <linearGradient id="hero-peach-cap" x1="0" y1="0" x2="1" y2="1">
      <stop offset="0" stop-color="#ffffff" stop-opacity="0.92"/>
      <stop offset="0.52" stop-color="#FFE4D5"/>
      <stop offset="1" stop-color="#FFB38A" stop-opacity="0.78"/>
    </linearGradient>
    <linearGradient id="hero-peach-label" x1="0" y1="0" x2="1" y2="1">
      <stop offset="0" stop-color="#FFFFFA" stop-opacity="0.9"/>
      <stop offset="1" stop-color="#FFF3DD" stop-opacity="0.72"/>
    </linearGradient>
    <radialGradient id="hero-peach-glow" cx="50%" cy="30%" r="70%">
      <stop offset="0" stop-color="#ffffff" stop-opacity="0.7"/>
      <stop offset="1" stop-color="#ffffff" stop-opacity="0"/>
    </radialGradient>
    <filter id="hero-peach-shadow" x="-40%" y="-40%" width="180%" height="190%">
      <feDropShadow dx="0" dy="36" stdDeviation="26" flood-color="#6B412A" flood-opacity="0.22"/>
    </filter>
  </defs>
    <ellipse cx="512" cy="1190" rx="245" ry="58" fill="#6B412A" opacity="0.17"/>
    <g filter="url(#hero-peach-shadow)">
      <g>
    <clipPath id="hero-peach-cap-clip"><path d="M344 442V278.2C344 210.16 411.2 190 512 190s168 20.16 168 88.19999999999999V442Z"/></clipPath>
    <path d="M344 442V278.2C344 210.16 411.2 190 512 190s168 20.16 168 88.19999999999999V442Z" fill="url(#hero-peach-cap)" stroke="#fff" stroke-width="6"/>
    <g clip-path="url(#hero-peach-cap-clip)"><rect x="380.96" y="207.64" width="31.42" height="196.56" rx="14.84" fill="#fff" opacity="0.34"/><rect x="428.09" y="207.64" width="31.42" height="196.56" rx="14.84" fill="#fff" opacity="0.2"/><rect x="475.21" y="207.64" width="31.42" height="196.56" rx="14.84" fill="#fff" opacity="0.34"/><rect x="522.34" y="207.64" width="31.42" height="196.56" rx="14.84" fill="#fff" opacity="0.2"/><rect x="569.47" y="207.64" width="31.42" height="196.56" rx="14.84" fill="#fff" opacity="0.34"/><rect x="616.60" y="207.64" width="31.42" height="196.56" rx="14.84" fill="#fff" opacity="0.2"/></g>
    <rect x="336" y="391.6" width="352" height="45.36" rx="20.16" fill="#FFE4D5" stroke="#fff" stroke-width="5" opacity="0.96"/>
  </g>
      <rect x="320" y="398" width="384" height="760" rx="116" fill="url(#hero-peach-body)" stroke="#fff" stroke-width="7"/>
      <rect x="354.56" y="422" width="61.44" height="592.8000000000001" rx="36" fill="#fff" opacity="0.2"/>
      <rect x="619.52" y="430" width="30.72" height="516.8000000000001" rx="22" fill="#302621" opacity="0.08"/>
      <ellipse cx="512" cy="468" rx="138.24" ry="83.6" fill="url(#hero-peach-glow)" opacity="0.85"/>
      <rect x="369" y="610" width="286" height="336" rx="104" fill="url(#hero-peach-label)" stroke="#fff" stroke-width="5" opacity="0.96"/>
      <text x="512" y="666" text-anchor="middle" font-family="Inter, Arial, sans-serif" font-size="24" font-weight="900" letter-spacing="4" fill="#6B412A" opacity="0.86">SORBET SKIN</text>
      <text x="512" y="726" text-anchor="middle" font-family="Georgia, serif" font-size="48" font-weight="700" fill="#6B412A">Peach</text><text x="512" y="778" text-anchor="middle" font-family="Georgia, serif" font-size="48" font-weight="700" fill="#6B412A">Glaze</text>
      <text x="512" y="834" text-anchor="middle" font-family="Inter, Arial, sans-serif" font-size="22" font-weight="800" fill="#6B412A" opacity="0.78">Whipped Self Tan Mousse</text>
      <text x="512" y="872" text-anchor="middle" font-family="Inter, Arial, sans-serif" font-size="20" font-weight="800" fill="#6B412A" opacity="0.62">Peach Sorbet</text>
      <g transform="translate(478 874) scale(0.62)" fill="#FF8FBC" opacity="0.85">
    <path d="M35 5c-13 7-20 18-18 30 2 10 13 14 25 18 11 3 18 7 18 15 0 8-7 15-22 20 24-2 39-13 39-29 0-13-11-20-28-25-12-3-18-7-17-14 1-6 7-11 16-15-4-1-8-1-13 0z"/>
    <path d="M27 52c-12 4-20 12-20 23 0 13 12 23 34 25-11-5-17-11-17-18 0-9 9-15 24-20-7-5-14-8-21-10z" opacity="0.6"/>
  </g>
    </g>
  </g>
      <g transform="translate(210 28) scale(0.66)">
    <defs>
    <linearGradient id="hero-caramel-body" x1="0" y1="0" x2="1" y2="1">
      <stop offset="0" stop-color="#F2C18B"/>
      <stop offset="0.36" stop-color="#C9894B"/>
      <stop offset="1" stop-color="#9B5F30"/>
    </linearGradient>
    <linearGradient id="hero-caramel-cap" x1="0" y1="0" x2="1" y2="1">
      <stop offset="0" stop-color="#ffffff" stop-opacity="0.92"/>
      <stop offset="0.52" stop-color="#F5C889"/>
      <stop offset="1" stop-color="#C9894B" stop-opacity="0.78"/>
    </linearGradient>
    <linearGradient id="hero-caramel-label" x1="0" y1="0" x2="1" y2="1">
      <stop offset="0" stop-color="#FFFFFA" stop-opacity="0.9"/>
      <stop offset="1" stop-color="#FFF3DD" stop-opacity="0.72"/>
    </linearGradient>
    <radialGradient id="hero-caramel-glow" cx="50%" cy="30%" r="70%">
      <stop offset="0" stop-color="#ffffff" stop-opacity="0.7"/>
      <stop offset="1" stop-color="#ffffff" stop-opacity="0"/>
    </radialGradient>
    <filter id="hero-caramel-shadow" x="-40%" y="-40%" width="180%" height="190%">
      <feDropShadow dx="0" dy="36" stdDeviation="26" flood-color="#6B412A" flood-opacity="0.22"/>
    </filter>
  </defs>
    <ellipse cx="512" cy="1190" rx="245" ry="58" fill="#6B412A" opacity="0.17"/>
    <g filter="url(#hero-caramel-shadow)">
      <g>
    <clipPath id="hero-caramel-cap-clip"><path d="M344 442V278.2C344 210.16 411.2 190 512 190s168 20.16 168 88.19999999999999V442Z"/></clipPath>
    <path d="M344 442V278.2C344 210.16 411.2 190 512 190s168 20.16 168 88.19999999999999V442Z" fill="url(#hero-caramel-cap)" stroke="#fff" stroke-width="6"/>
    <g clip-path="url(#hero-caramel-cap-clip)"><rect x="380.96" y="207.64" width="31.42" height="196.56" rx="14.84" fill="#fff" opacity="0.34"/><rect x="428.09" y="207.64" width="31.42" height="196.56" rx="14.84" fill="#fff" opacity="0.2"/><rect x="475.21" y="207.64" width="31.42" height="196.56" rx="14.84" fill="#fff" opacity="0.34"/><rect x="522.34" y="207.64" width="31.42" height="196.56" rx="14.84" fill="#fff" opacity="0.2"/><rect x="569.47" y="207.64" width="31.42" height="196.56" rx="14.84" fill="#fff" opacity="0.34"/><rect x="616.60" y="207.64" width="31.42" height="196.56" rx="14.84" fill="#fff" opacity="0.2"/></g>
    <rect x="336" y="391.6" width="352" height="45.36" rx="20.16" fill="#F5C889" stroke="#fff" stroke-width="5" opacity="0.96"/>
  </g>
      <rect x="320" y="398" width="384" height="760" rx="116" fill="url(#hero-caramel-body)" stroke="#fff" stroke-width="7"/>
      <rect x="354.56" y="422" width="61.44" height="592.8000000000001" rx="36" fill="#fff" opacity="0.2"/>
      <rect x="619.52" y="430" width="30.72" height="516.8000000000001" rx="22" fill="#302621" opacity="0.08"/>
      <ellipse cx="512" cy="468" rx="138.24" ry="83.6" fill="url(#hero-caramel-glow)" opacity="0.85"/>
      <rect x="369" y="610" width="286" height="336" rx="104" fill="url(#hero-caramel-label)" stroke="#fff" stroke-width="5" opacity="0.96"/>
      <text x="512" y="666" text-anchor="middle" font-family="Inter, Arial, sans-serif" font-size="24" font-weight="900" letter-spacing="4" fill="#302621" opacity="0.86">SORBET SKIN</text>
      <text x="512" y="726" text-anchor="middle" font-family="Georgia, serif" font-size="48" font-weight="700" fill="#302621">Caramel</text><text x="512" y="778" text-anchor="middle" font-family="Georgia, serif" font-size="48" font-weight="700" fill="#302621">Cloud</text>
      <text x="512" y="834" text-anchor="middle" font-family="Inter, Arial, sans-serif" font-size="22" font-weight="800" fill="#302621" opacity="0.78">Whipped Self Tan Mousse</text>
      <text x="512" y="872" text-anchor="middle" font-family="Inter, Arial, sans-serif" font-size="20" font-weight="800" fill="#302621" opacity="0.62">Salted Caramel</text>
      <g transform="translate(478 874) scale(0.62)" fill="#E7A84E" opacity="0.85">
    <path d="M35 5c-13 7-20 18-18 30 2 10 13 14 25 18 11 3 18 7 18 15 0 8-7 15-22 20 24-2 39-13 39-29 0-13-11-20-28-25-12-3-18-7-17-14 1-6 7-11 16-15-4-1-8-1-13 0z"/>
    <path d="M27 52c-12 4-20 12-20 23 0 13 12 23 34 25-11-5-17-11-17-18 0-9 9-15 24-20-7-5-14-8-21-10z" opacity="0.6"/>
  </g>
    </g>
  </g>
      <g transform="translate(420 18) scale(0.68)">
    <defs>
    <linearGradient id="hero-cocoa-body" x1="0" y1="0" x2="1" y2="1">
      <stop offset="0" stop-color="#A46E4D"/>
      <stop offset="0.36" stop-color="#6B412A"/>
      <stop offset="1" stop-color="#352019"/>
    </linearGradient>
    <linearGradient id="hero-cocoa-cap" x1="0" y1="0" x2="1" y2="1">
      <stop offset="0" stop-color="#ffffff" stop-opacity="0.92"/>
      <stop offset="0.52" stop-color="#8E5A3B"/>
      <stop offset="1" stop-color="#6B412A" stop-opacity="0.78"/>
    </linearGradient>
    <linearGradient id="hero-cocoa-label" x1="0" y1="0" x2="1" y2="1">
      <stop offset="0" stop-color="#FFFFFA" stop-opacity="0.9"/>
      <stop offset="1" stop-color="#FFF3DD" stop-opacity="0.72"/>
    </linearGradient>
    <radialGradient id="hero-cocoa-glow" cx="50%" cy="30%" r="70%">
      <stop offset="0" stop-color="#ffffff" stop-opacity="0.7"/>
      <stop offset="1" stop-color="#ffffff" stop-opacity="0"/>
    </radialGradient>
    <filter id="hero-cocoa-shadow" x="-40%" y="-40%" width="180%" height="190%">
      <feDropShadow dx="0" dy="36" stdDeviation="26" flood-color="#6B412A" flood-opacity="0.22"/>
    </filter>
  </defs>
    <ellipse cx="512" cy="1190" rx="245" ry="58" fill="#6B412A" opacity="0.17"/>
    <g filter="url(#hero-cocoa-shadow)">
      <g>
    <clipPath id="hero-cocoa-cap-clip"><path d="M344 442V278.2C344 210.16 411.2 190 512 190s168 20.16 168 88.19999999999999V442Z"/></clipPath>
    <path d="M344 442V278.2C344 210.16 411.2 190 512 190s168 20.16 168 88.19999999999999V442Z" fill="url(#hero-cocoa-cap)" stroke="#fff" stroke-width="6"/>
    <g clip-path="url(#hero-cocoa-cap-clip)"><rect x="380.96" y="207.64" width="31.42" height="196.56" rx="14.84" fill="#fff" opacity="0.34"/><rect x="428.09" y="207.64" width="31.42" height="196.56" rx="14.84" fill="#fff" opacity="0.2"/><rect x="475.21" y="207.64" width="31.42" height="196.56" rx="14.84" fill="#fff" opacity="0.34"/><rect x="522.34" y="207.64" width="31.42" height="196.56" rx="14.84" fill="#fff" opacity="0.2"/><rect x="569.47" y="207.64" width="31.42" height="196.56" rx="14.84" fill="#fff" opacity="0.34"/><rect x="616.60" y="207.64" width="31.42" height="196.56" rx="14.84" fill="#fff" opacity="0.2"/></g>
    <rect x="336" y="391.6" width="352" height="45.36" rx="20.16" fill="#8E5A3B" stroke="#fff" stroke-width="5" opacity="0.96"/>
  </g>
      <rect x="320" y="398" width="384" height="760" rx="116" fill="url(#hero-cocoa-body)" stroke="#fff" stroke-width="7"/>
      <rect x="354.56" y="422" width="61.44" height="592.8000000000001" rx="36" fill="#fff" opacity="0.2"/>
      <rect x="619.52" y="430" width="30.72" height="516.8000000000001" rx="22" fill="#302621" opacity="0.08"/>
      <ellipse cx="512" cy="468" rx="138.24" ry="83.6" fill="url(#hero-cocoa-glow)" opacity="0.85"/>
      <rect x="369" y="610" width="286" height="336" rx="104" fill="url(#hero-cocoa-label)" stroke="#fff" stroke-width="5" opacity="0.96"/>
      <text x="512" y="666" text-anchor="middle" font-family="Inter, Arial, sans-serif" font-size="24" font-weight="900" letter-spacing="4" fill="#FFF9EE" opacity="0.86">SORBET SKIN</text>
      <text x="512" y="726" text-anchor="middle" font-family="Georgia, serif" font-size="48" font-weight="700" fill="#FFF9EE">Cocoa</text><text x="512" y="778" text-anchor="middle" font-family="Georgia, serif" font-size="48" font-weight="700" fill="#FFF9EE">Drip</text>
      <text x="512" y="834" text-anchor="middle" font-family="Inter, Arial, sans-serif" font-size="22" font-weight="800" fill="#FFF9EE" opacity="0.78">Express Tan Foam</text>
      <text x="512" y="872" text-anchor="middle" font-family="Inter, Arial, sans-serif" font-size="20" font-weight="800" fill="#FFF9EE" opacity="0.62">Cocoa Vanilla</text>
      <g transform="translate(478 874) scale(0.62)" fill="#F1C49C" opacity="0.85">
    <path d="M35 5c-13 7-20 18-18 30 2 10 13 14 25 18 11 3 18 7 18 15 0 8-7 15-22 20 24-2 39-13 39-29 0-13-11-20-28-25-12-3-18-7-17-14 1-6 7-11 16-15-4-1-8-1-13 0z"/>
    <path d="M27 52c-12 4-20 12-20 23 0 13 12 23 34 25-11-5-17-11-17-18 0-9 9-15 24-20-7-5-14-8-21-10z" opacity="0.6"/>
  </g>
    </g>
  </g>
      <g transform="translate(632 48) scale(0.64)">
    <defs>
    <linearGradient id="hero-vanilla-body" x1="0" y1="0" x2="1" y2="1">
      <stop offset="0" stop-color="#FFFFFA"/>
      <stop offset="0.36" stop-color="#FFF3DD"/>
      <stop offset="1" stop-color="#E8C891"/>
    </linearGradient>
    <linearGradient id="hero-vanilla-cap" x1="0" y1="0" x2="1" y2="1">
      <stop offset="0" stop-color="#ffffff" stop-opacity="0.92"/>
      <stop offset="0.52" stop-color="#FFF9EE"/>
      <stop offset="1" stop-color="#FFF3DD" stop-opacity="0.78"/>
    </linearGradient>
    <linearGradient id="hero-vanilla-label" x1="0" y1="0" x2="1" y2="1">
      <stop offset="0" stop-color="#FFFFFA" stop-opacity="0.9"/>
      <stop offset="1" stop-color="#FFF3DD" stop-opacity="0.72"/>
    </linearGradient>
    <radialGradient id="hero-vanilla-glow" cx="50%" cy="30%" r="70%">
      <stop offset="0" stop-color="#ffffff" stop-opacity="0.7"/>
      <stop offset="1" stop-color="#ffffff" stop-opacity="0"/>
    </radialGradient>
    <filter id="hero-vanilla-shadow" x="-40%" y="-40%" width="180%" height="190%">
      <feDropShadow dx="0" dy="36" stdDeviation="26" flood-color="#6B412A" flood-opacity="0.22"/>
    </filter>
  </defs>
    <ellipse cx="512" cy="1190" rx="245" ry="58" fill="#6B412A" opacity="0.17"/>
    <g filter="url(#hero-vanilla-shadow)">
      <g>
    <clipPath id="hero-vanilla-cap-clip"><path d="M344 442V278.2C344 210.16 411.2 190 512 190s168 20.16 168 88.19999999999999V442Z"/></clipPath>
    <path d="M344 442V278.2C344 210.16 411.2 190 512 190s168 20.16 168 88.19999999999999V442Z" fill="url(#hero-vanilla-cap)" stroke="#fff" stroke-width="6"/>
    <g clip-path="url(#hero-vanilla-cap-clip)"><rect x="380.96" y="207.64" width="31.42" height="196.56" rx="14.84" fill="#fff" opacity="0.34"/><rect x="428.09" y="207.64" width="31.42" height="196.56" rx="14.84" fill="#fff" opacity="0.2"/><rect x="475.21" y="207.64" width="31.42" height="196.56" rx="14.84" fill="#fff" opacity="0.34"/><rect x="522.34" y="207.64" width="31.42" height="196.56" rx="14.84" fill="#fff" opacity="0.2"/><rect x="569.47" y="207.64" width="31.42" height="196.56" rx="14.84" fill="#fff" opacity="0.34"/><rect x="616.60" y="207.64" width="31.42" height="196.56" rx="14.84" fill="#fff" opacity="0.2"/></g>
    <rect x="336" y="391.6" width="352" height="45.36" rx="20.16" fill="#FFF9EE" stroke="#fff" stroke-width="5" opacity="0.96"/>
  </g>
      <rect x="320" y="398" width="384" height="760" rx="116" fill="url(#hero-vanilla-body)" stroke="#fff" stroke-width="7"/>
      <rect x="354.56" y="422" width="61.44" height="592.8000000000001" rx="36" fill="#fff" opacity="0.2"/>
      <rect x="619.52" y="430" width="30.72" height="516.8000000000001" rx="22" fill="#302621" opacity="0.08"/>
      <ellipse cx="512" cy="468" rx="138.24" ry="83.6" fill="url(#hero-vanilla-glow)" opacity="0.85"/>
      <rect x="369" y="610" width="286" height="336" rx="104" fill="url(#hero-vanilla-label)" stroke="#fff" stroke-width="5" opacity="0.96"/>
      <text x="512" y="666" text-anchor="middle" font-family="Inter, Arial, sans-serif" font-size="24" font-weight="900" letter-spacing="4" fill="#6B412A" opacity="0.86">SORBET SKIN</text>
      <text x="512" y="726" text-anchor="middle" font-family="Georgia, serif" font-size="48" font-weight="700" fill="#6B412A">Vanilla</text><text x="512" y="778" text-anchor="middle" font-family="Georgia, serif" font-size="48" font-weight="700" fill="#6B412A">Veil</text>
      <text x="512" y="834" text-anchor="middle" font-family="Inter, Arial, sans-serif" font-size="22" font-weight="800" fill="#6B412A" opacity="0.78">Gradual Glow Body Whip</text>
      <text x="512" y="872" text-anchor="middle" font-family="Inter, Arial, sans-serif" font-size="20" font-weight="800" fill="#6B412A" opacity="0.62">Vanilla Cream</text>
      <g transform="translate(478 874) scale(0.62)" fill="#E7A84E" opacity="0.85">
    <path d="M35 5c-13 7-20 18-18 30 2 10 13 14 25 18 11 3 18 7 18 15 0 8-7 15-22 20 24-2 39-13 39-29 0-13-11-20-28-25-12-3-18-7-17-14 1-6 7-11 16-15-4-1-8-1-13 0z"/>
    <path d="M27 52c-12 4-20 12-20 23 0 13 12 23 34 25-11-5-17-11-17-18 0-9 9-15 24-20-7-5-14-8-21-10z" opacity="0.6"/>
  </g>
    </g>
  </g>
      <g transform="translate(810 64) scale(0.62)">
    <defs>
    <linearGradient id="hero-coconut-body" x1="0" y1="0" x2="1" y2="1">
      <stop offset="0" stop-color="#F0FFF3"/>
      <stop offset="0.36" stop-color="#BEE5C5"/>
      <stop offset="1" stop-color="#7DBF8A"/>
    </linearGradient>
    <linearGradient id="hero-coconut-cap" x1="0" y1="0" x2="1" y2="1">
      <stop offset="0" stop-color="#ffffff" stop-opacity="0.92"/>
      <stop offset="0.52" stop-color="#E9F7DD"/>
      <stop offset="1" stop-color="#BEE5C5" stop-opacity="0.78"/>
    </linearGradient>
    <linearGradient id="hero-coconut-label" x1="0" y1="0" x2="1" y2="1">
      <stop offset="0" stop-color="#FFFFFA" stop-opacity="0.9"/>
      <stop offset="1" stop-color="#FFF3DD" stop-opacity="0.72"/>
    </linearGradient>
    <radialGradient id="hero-coconut-glow" cx="50%" cy="30%" r="70%">
      <stop offset="0" stop-color="#ffffff" stop-opacity="0.7"/>
      <stop offset="1" stop-color="#ffffff" stop-opacity="0"/>
    </radialGradient>
    <filter id="hero-coconut-shadow" x="-40%" y="-40%" width="180%" height="190%">
      <feDropShadow dx="0" dy="36" stdDeviation="26" flood-color="#6B412A" flood-opacity="0.22"/>
    </filter>
  </defs>
    <ellipse cx="512" cy="1190" rx="245" ry="58" fill="#6B412A" opacity="0.17"/>
    <g filter="url(#hero-coconut-shadow)">
      <g>
    <clipPath id="hero-coconut-cap-clip"><path d="M344 442V278.2C344 210.16 411.2 190 512 190s168 20.16 168 88.19999999999999V442Z"/></clipPath>
    <path d="M344 442V278.2C344 210.16 411.2 190 512 190s168 20.16 168 88.19999999999999V442Z" fill="url(#hero-coconut-cap)" stroke="#fff" stroke-width="6"/>
    <g clip-path="url(#hero-coconut-cap-clip)"><rect x="380.96" y="207.64" width="31.42" height="196.56" rx="14.84" fill="#fff" opacity="0.34"/><rect x="428.09" y="207.64" width="31.42" height="196.56" rx="14.84" fill="#fff" opacity="0.2"/><rect x="475.21" y="207.64" width="31.42" height="196.56" rx="14.84" fill="#fff" opacity="0.34"/><rect x="522.34" y="207.64" width="31.42" height="196.56" rx="14.84" fill="#fff" opacity="0.2"/><rect x="569.47" y="207.64" width="31.42" height="196.56" rx="14.84" fill="#fff" opacity="0.34"/><rect x="616.60" y="207.64" width="31.42" height="196.56" rx="14.84" fill="#fff" opacity="0.2"/></g>
    <rect x="336" y="391.6" width="352" height="45.36" rx="20.16" fill="#E9F7DD" stroke="#fff" stroke-width="5" opacity="0.96"/>
  </g>
      <rect x="320" y="398" width="384" height="760" rx="116" fill="url(#hero-coconut-body)" stroke="#fff" stroke-width="7"/>
      <rect x="354.56" y="422" width="61.44" height="592.8000000000001" rx="36" fill="#fff" opacity="0.2"/>
      <rect x="619.52" y="430" width="30.72" height="516.8000000000001" rx="22" fill="#302621" opacity="0.08"/>
      <ellipse cx="512" cy="468" rx="138.24" ry="83.6" fill="url(#hero-coconut-glow)" opacity="0.85"/>
      <rect x="369" y="610" width="286" height="336" rx="104" fill="url(#hero-coconut-label)" stroke="#fff" stroke-width="5" opacity="0.96"/>
      <text x="512" y="666" text-anchor="middle" font-family="Inter, Arial, sans-serif" font-size="24" font-weight="900" letter-spacing="4" fill="#4E6F3E" opacity="0.86">SORBET SKIN</text>
      <text x="512" y="726" text-anchor="middle" font-family="Georgia, serif" font-size="48" font-weight="700" fill="#4E6F3E">Coconut</text><text x="512" y="778" text-anchor="middle" font-family="Georgia, serif" font-size="48" font-weight="700" fill="#4E6F3E">Melt</text>
      <text x="512" y="834" text-anchor="middle" font-family="Inter, Arial, sans-serif" font-size="22" font-weight="800" fill="#4E6F3E" opacity="0.78">Tan Eraser Foam</text>
      <text x="512" y="872" text-anchor="middle" font-family="Inter, Arial, sans-serif" font-size="20" font-weight="800" fill="#4E6F3E" opacity="0.62">Coconut Milk</text>
      <g transform="translate(478 874) scale(0.62)" fill="#FFB38A" opacity="0.85">
    <path d="M35 5c-13 7-20 18-18 30 2 10 13 14 25 18 11 3 18 7 18 15 0 8-7 15-22 20 24-2 39-13 39-29 0-13-11-20-28-25-12-3-18-7-17-14 1-6 7-11 16-15-4-1-8-1-13 0z"/>
    <path d="M27 52c-12 4-20 12-20 23 0 13 12 23 34 25-11-5-17-11-17-18 0-9 9-15 24-20-7-5-14-8-21-10z" opacity="0.6"/>
  </g>
    </g>
  </g>
      <g transform="translate(982 90) scale(0.58)">
    <defs>
    <linearGradient id="hero-honey-body" x1="0" y1="0" x2="1" y2="1">
      <stop offset="0" stop-color="#EEFFF0"/>
      <stop offset="0.36" stop-color="#BEE5C5"/>
      <stop offset="1" stop-color="#7DAF78"/>
    </linearGradient>
    <linearGradient id="hero-honey-cap" x1="0" y1="0" x2="1" y2="1">
      <stop offset="0" stop-color="#ffffff" stop-opacity="0.92"/>
      <stop offset="0.52" stop-color="#FFF3DD"/>
      <stop offset="1" stop-color="#BEE5C5" stop-opacity="0.78"/>
    </linearGradient>
    <linearGradient id="hero-honey-label" x1="0" y1="0" x2="1" y2="1">
      <stop offset="0" stop-color="#FFFFFA" stop-opacity="0.9"/>
      <stop offset="1" stop-color="#FFF3DD" stop-opacity="0.72"/>
    </linearGradient>
    <radialGradient id="hero-honey-glow" cx="50%" cy="30%" r="70%">
      <stop offset="0" stop-color="#ffffff" stop-opacity="0.7"/>
      <stop offset="1" stop-color="#ffffff" stop-opacity="0"/>
    </radialGradient>
    <filter id="hero-honey-shadow" x="-40%" y="-40%" width="180%" height="190%">
      <feDropShadow dx="0" dy="36" stdDeviation="26" flood-color="#6B412A" flood-opacity="0.22"/>
    </filter>
  </defs>
    <ellipse cx="512" cy="1190" rx="245" ry="58" fill="#6B412A" opacity="0.17"/>
    <g filter="url(#hero-honey-shadow)">
      <g>
    <clipPath id="hero-honey-cap-clip"><path d="M392 446V322.5C392 271.2 440 256 512 256s120 15.200000000000001 120 66.5V446Z"/></clipPath>
    <path d="M392 446V322.5C392 271.2 440 256 512 256s120 15.200000000000001 120 66.5V446Z" fill="url(#hero-honey-cap)" stroke="#fff" stroke-width="6"/>
    <g clip-path="url(#hero-honey-cap-clip)"><rect x="418.40" y="269.30" width="22.44" height="148.20" rx="10.60" fill="#fff" opacity="0.34"/><rect x="452.06" y="269.30" width="22.44" height="148.20" rx="10.60" fill="#fff" opacity="0.2"/><rect x="485.72" y="269.30" width="22.44" height="148.20" rx="10.60" fill="#fff" opacity="0.34"/><rect x="519.39" y="269.30" width="22.44" height="148.20" rx="10.60" fill="#fff" opacity="0.2"/><rect x="553.05" y="269.30" width="22.44" height="148.20" rx="10.60" fill="#fff" opacity="0.34"/><rect x="586.71" y="269.30" width="22.44" height="148.20" rx="10.60" fill="#fff" opacity="0.2"/></g>
    <rect x="384" y="408" width="256" height="34.199999999999996" rx="15.200000000000001" fill="#FFF3DD" stroke="#fff" stroke-width="5" opacity="0.96"/>
  </g>
      <rect x="370" y="428" width="284" height="650" rx="88" fill="url(#hero-honey-body)" stroke="#fff" stroke-width="7"/>
      <rect x="395.56" y="452" width="45.44" height="507" rx="36" fill="#fff" opacity="0.2"/>
      <rect x="591.52" y="460" width="22.72" height="442.00000000000006" rx="22" fill="#302621" opacity="0.08"/>
      <ellipse cx="512" cy="498" rx="102.24" ry="71.5" fill="url(#hero-honey-glow)" opacity="0.85"/>
      <rect x="406" y="585" width="212" height="310" rx="84" fill="url(#hero-honey-label)" stroke="#fff" stroke-width="5" opacity="0.96"/>
      <text x="512" y="641" text-anchor="middle" font-family="Inter, Arial, sans-serif" font-size="24" font-weight="900" letter-spacing="4" fill="#4E6F3E" opacity="0.86">SORBET SKIN</text>
      <text x="512" y="701" text-anchor="middle" font-family="Georgia, serif" font-size="48" font-weight="700" fill="#4E6F3E">Honey</text><text x="512" y="753" text-anchor="middle" font-family="Georgia, serif" font-size="48" font-weight="700" fill="#4E6F3E">Dew Drops</text>
      <text x="512" y="809" text-anchor="middle" font-family="Inter, Arial, sans-serif" font-size="22" font-weight="800" fill="#4E6F3E" opacity="0.78">Face Tan Drops</text>
      <text x="512" y="847" text-anchor="middle" font-family="Inter, Arial, sans-serif" font-size="20" font-weight="800" fill="#4E6F3E" opacity="0.62">Fragrance-free</text>
      <g transform="translate(478 823) scale(0.62)" fill="#E7A84E" opacity="0.85">
    <path d="M35 5c-13 7-20 18-18 30 2 10 13 14 25 18 11 3 18 7 18 15 0 8-7 15-22 20 24-2 39-13 39-29 0-13-11-20-28-25-12-3-18-7-17-14 1-6 7-11 16-15-4-1-8-1-13 0z"/>
    <path d="M27 52c-12 4-20 12-20 23 0 13 12 23 34 25-11-5-17-11-17-18 0-9 9-15 24-20-7-5-14-8-21-10z" opacity="0.6"/>
  </g>
    </g>
  </g>
      <g transform="translate(1142 84) scale(0.58)">
    <defs>
    <linearGradient id="hero-champagne-body" x1="0" y1="0" x2="1" y2="1">
      <stop offset="0" stop-color="#FFE0A8"/>
      <stop offset="0.36" stop-color="#E7A84E"/>
      <stop offset="1" stop-color="#B87532"/>
    </linearGradient>
    <linearGradient id="hero-champagne-cap" x1="0" y1="0" x2="1" y2="1">
      <stop offset="0" stop-color="#ffffff" stop-opacity="0.92"/>
      <stop offset="0.52" stop-color="#FFF3DD"/>
      <stop offset="1" stop-color="#E7A84E" stop-opacity="0.78"/>
    </linearGradient>
    <linearGradient id="hero-champagne-label" x1="0" y1="0" x2="1" y2="1">
      <stop offset="0" stop-color="#FFFFFA" stop-opacity="0.9"/>
      <stop offset="1" stop-color="#FFF3DD" stop-opacity="0.72"/>
    </linearGradient>
    <radialGradient id="hero-champagne-glow" cx="50%" cy="30%" r="70%">
      <stop offset="0" stop-color="#ffffff" stop-opacity="0.7"/>
      <stop offset="1" stop-color="#ffffff" stop-opacity="0"/>
    </radialGradient>
    <filter id="hero-champagne-shadow" x="-40%" y="-40%" width="180%" height="190%">
      <feDropShadow dx="0" dy="36" stdDeviation="26" flood-color="#6B412A" flood-opacity="0.22"/>
    </filter>
  </defs>
    <ellipse cx="512" cy="1190" rx="245" ry="58" fill="#6B412A" opacity="0.17"/>
    <g filter="url(#hero-champagne-shadow)">
      <g>
    <clipPath id="hero-champagne-cap-clip"><path d="M392 442V278.2C392 210.16 440 190 512 190s120 20.16 120 88.19999999999999V442Z"/></clipPath>
    <path d="M392 442V278.2C392 210.16 440 190 512 190s120 20.16 120 88.19999999999999V442Z" fill="url(#hero-champagne-cap)" stroke="#fff" stroke-width="6"/>
    <g clip-path="url(#hero-champagne-cap-clip)"><rect x="418.40" y="207.64" width="22.44" height="196.56" rx="10.60" fill="#fff" opacity="0.34"/><rect x="452.06" y="207.64" width="22.44" height="196.56" rx="10.60" fill="#fff" opacity="0.2"/><rect x="485.72" y="207.64" width="22.44" height="196.56" rx="10.60" fill="#fff" opacity="0.34"/><rect x="519.39" y="207.64" width="22.44" height="196.56" rx="10.60" fill="#fff" opacity="0.2"/><rect x="553.05" y="207.64" width="22.44" height="196.56" rx="10.60" fill="#fff" opacity="0.34"/><rect x="586.71" y="207.64" width="22.44" height="196.56" rx="10.60" fill="#fff" opacity="0.2"/></g>
    <rect x="384" y="391.6" width="256" height="45.36" rx="20.16" fill="#FFF3DD" stroke="#fff" stroke-width="5" opacity="0.96"/>
  </g>
      <rect x="370" y="398" width="284" height="760" rx="88" fill="url(#hero-champagne-body)" stroke="#fff" stroke-width="7"/>
      <rect x="395.56" y="422" width="45.44" height="592.8000000000001" rx="36" fill="#fff" opacity="0.2"/>
      <rect x="591.52" y="430" width="22.72" height="516.8000000000001" rx="22" fill="#302621" opacity="0.08"/>
      <ellipse cx="512" cy="468" rx="102.24" ry="83.6" fill="url(#hero-champagne-glow)" opacity="0.85"/>
      <rect x="406" y="610" width="212" height="336" rx="84" fill="url(#hero-champagne-label)" stroke="#fff" stroke-width="5" opacity="0.96"/>
      <text x="512" y="666" text-anchor="middle" font-family="Inter, Arial, sans-serif" font-size="24" font-weight="900" letter-spacing="4" fill="#6B412A" opacity="0.86">SORBET SKIN</text>
      <text x="512" y="726" text-anchor="middle" font-family="Georgia, serif" font-size="48" font-weight="700" fill="#6B412A">Champagne</text><text x="512" y="778" text-anchor="middle" font-family="Georgia, serif" font-size="48" font-weight="700" fill="#6B412A">Blur</text>
      <text x="512" y="834" text-anchor="middle" font-family="Inter, Arial, sans-serif" font-size="22" font-weight="800" fill="#6B412A" opacity="0.78">Bronzing Body Blur</text>
      <text x="512" y="872" text-anchor="middle" font-family="Inter, Arial, sans-serif" font-size="20" font-weight="800" fill="#6B412A" opacity="0.62">Toasted Coconut</text>
      <g transform="translate(478 874) scale(0.62)" fill="#FF8FBC" opacity="0.85">
    <path d="M35 5c-13 7-20 18-18 30 2 10 13 14 25 18 11 3 18 7 18 15 0 8-7 15-22 20 24-2 39-13 39-29 0-13-11-20-28-25-12-3-18-7-17-14 1-6 7-11 16-15-4-1-8-1-13 0z"/>
    <path d="M27 52c-12 4-20 12-20 23 0 13 12 23 34 25-11-5-17-11-17-18 0-9 9-15 24-20-7-5-14-8-21-10z" opacity="0.6"/>
  </g>
    </g>
  </g>
      <g transform="translate(1120 260) scale(0.46)">
    <defs>
    <linearGradient id="hero-mitt-body" x1="0" y1="0" x2="1" y2="1">
      <stop offset="0" stop-color="#EEE9FF"/>
      <stop offset="0.36" stop-color="#B8A7FF"/>
      <stop offset="1" stop-color="#8E78E8"/>
    </linearGradient>
    <linearGradient id="hero-mitt-cap" x1="0" y1="0" x2="1" y2="1">
      <stop offset="0" stop-color="#ffffff" stop-opacity="0.92"/>
      <stop offset="0.52" stop-color="#FFF3DD"/>
      <stop offset="1" stop-color="#B8A7FF" stop-opacity="0.78"/>
    </linearGradient>
    <linearGradient id="hero-mitt-label" x1="0" y1="0" x2="1" y2="1">
      <stop offset="0" stop-color="#FFFFFA" stop-opacity="0.9"/>
      <stop offset="1" stop-color="#FFF3DD" stop-opacity="0.72"/>
    </linearGradient>
    <radialGradient id="hero-mitt-glow" cx="50%" cy="30%" r="70%">
      <stop offset="0" stop-color="#ffffff" stop-opacity="0.7"/>
      <stop offset="1" stop-color="#ffffff" stop-opacity="0"/>
    </radialGradient>
    <filter id="hero-mitt-shadow" x="-40%" y="-40%" width="180%" height="190%">
      <feDropShadow dx="0" dy="36" stdDeviation="26" flood-color="#6B412A" flood-opacity="0.22"/>
    </filter>
  </defs>
    <ellipse cx="512" cy="1192" rx="270" ry="60" fill="#6B412A" opacity="0.16"/>
    <g filter="url(#hero-mitt-shadow)">
      <rect x="280" y="420" width="464" height="650" rx="88" fill="url(#hero-mitt-body)" stroke="#fff" stroke-width="7"/>
      <path d="M292 625c87 46 132 51 220 0s143-48 220 3v442H292Z" fill="#FFF3DD" opacity="0.42"/>
      <path d="M350 268c78-72 230-72 318 0 66 54 90 159 80 254l-34 335c-7 70-69 124-141 124H449c-72 0-133-54-140-124l-33-335c-10-96 13-201 74-254Z" fill="#E9DFFF" stroke="#fff" stroke-width="8"/>
      <path d="M399 315c55-45 166-45 226 0 47 36 62 113 55 184l-28 302c-5 48-47 86-96 86h-89c-49 0-91-38-96-86l-28-302c-7-72 10-148 56-184Z" fill="url(#hero-mitt-cap)" opacity="0.98"/>
      <path d="M360 972h304c42 0 76 34 76 76v96H284v-96c0-42 34-76 76-76Z" fill="#FFF9EE" stroke="#fff" stroke-width="6"/>
      <text x="512" y="1042" text-anchor="middle" font-family="Inter, Arial, sans-serif" font-size="24" font-weight="900" letter-spacing="4" fill="#302621">SORBET SKIN</text>
      <text x="512" y="1108" text-anchor="middle" font-family="Georgia, serif" font-size="54" font-weight="700" fill="#302621">Velvet Mitt</text>
      <text x="512" y="1152" text-anchor="middle" font-family="Inter, Arial, sans-serif" font-size="22" font-weight="800" fill="#302621" opacity="0.62">Reusable application mitt</text>
      <g transform="translate(478 1186) scale(0.62)" fill="#FF8FBC" opacity="0.85">
    <path d="M35 5c-13 7-20 18-18 30 2 10 13 14 25 18 11 3 18 7 18 15 0 8-7 15-22 20 24-2 39-13 39-29 0-13-11-20-28-25-12-3-18-7-17-14 1-6 7-11 16-15-4-1-8-1-13 0z"/>
    <path d="M27 52c-12 4-20 12-20 23 0 13 12 23 34 25-11-5-17-11-17-18 0-9 9-15 24-20-7-5-14-8-21-10z" opacity="0.6"/>
  </g>
    </g>
  </g>
    </g>
    <path d="M474 934c110 18 365 26 570 2" stroke="#E7A84E" stroke-width="5" stroke-linecap="round" opacity="0.32"/>
  </svg>
